<?xml version="1.0" encoding="UTF-8"?>
<svg id="Layer_1" data-name="Layer 1" xmlns="http://www.w3.org/2000/svg" version="1.1" viewBox="0 0 152.78 38.67">
  <defs>
    <style>
      .cls-1 {
        fill: #666;
        stroke-width: 0px;
      }
    </style>
  </defs>
  <path class="cls-1" d="M76.38,34.22c-.12.13-.25.24-.34.38-1.54,2.41-3.83,3.59-6.59,3.92-1.62.19-3.24.12-4.83-.34-2.63-.76-4.33-2.48-5.23-5.04-.55-1.56-.62-3.19-.64-4.81-.03-2.62,0-5.24,0-7.85,0-.78,0-1.57-.12-2.34-.25-1.65-1.04-2.34-2.71-2.49-.27-.03-.54-.04-.81-.04-.45.01-.67-.24-.73-.64-.04-.29-.06-.6-.02-.9.07-.56.25-.71.82-.75,2.16-.17,4.32-.29,6.47-.51,1.64-.17,3.27-.44,4.9-.72,1.21-.21,1.62.09,1.62,1.33,0,5.48-.01,10.96.02,16.43,0,.83.11,1.69.34,2.49.74,2.57,4.03,2.77,5.44,1.72,1.12-.84,1.87-1.95,2.35-3.24.1-.27.09-.59.09-.89,0-3.31.02-6.62,0-9.93,0-.69-.07-1.39-.21-2.06-.3-1.43-1-2.05-2.44-2.27-.3-.05-.6-.04-.9-.06-.7-.04-.89-.22-.95-.91-.02-.21-.02-.42.02-.63.09-.56.26-.71.83-.75,1.59-.11,3.18-.2,4.77-.3,2.34-.15,4.67-.38,6.97-.87.74-.16,1.16.16,1.21.92.02.33.01.66.01.99,0,5.21-.01,10.41.01,15.62,0,.89.15,1.79.29,2.68.13.87.71,1.37,1.54,1.57.47.11.94.18,1.41.27.63.12.89.51.86,1.25-.03.64-.26.88-.94.97-3.49.47-6.95,1.07-10.34,2.05-.2.06-.41.11-.62.12-.63.04-.97-.23-1.03-.86-.08-.87-.12-1.74-.18-2.61-.02-.29-.07-.57-.11-.86-.07-.01-.15-.03-.22-.04"/>
  <path class="cls-1" d="M41.31,34.79c-.17.15-.35.26-.47.42-1.53,2-3.63,2.92-6.07,3.13-1.96.17-3.89.08-5.77-.65-4.5-1.74-4.32-7.13-1.4-9.39,1.5-1.16,3.18-1.92,4.94-2.58,2.54-.95,5.16-1.61,7.8-2.24.2-.05.41-.11.62-.14.43-.07.61-.31.61-.75.03-1.93.12-3.85.09-5.78-.03-1.65-.74-2.29-2.38-2.24-.56.02-1.13.16-1.68.3-1,.25-1.47.95-1.6,1.95-.1.83-.21,1.67-.39,2.49-.13.58-.34,1.16-.59,1.7-.47,1.02-1.29,1.63-2.38,1.91-.95.24-1.87.24-2.85.06-2.14-.39-3.74-3.4-2.43-5.6.7-1.18,1.71-2.02,2.85-2.7,3.27-1.97,6.83-2.98,10.64-3.02,1.32-.02,2.65.05,3.95.26,2.5.4,4.18,1.84,5.02,4.26.42,1.21.66,2.45.63,3.72-.07,3.7-.19,7.4-.27,11.1-.01.51.01,1.02.09,1.53.21,1.44,1.51,2.18,2.88,1.68.08-.03.16-.08.25-.11.83-.39.92-.37,1.34.22.45.63.47,1.13-.08,1.6-.54.47-1.14.9-1.78,1.21-2.01.98-4.15,1.38-6.39,1.28-2.28-.11-3.97-1.06-4.87-3.24-.03-.08-.08-.16-.13-.23-.02-.02-.05-.04-.17-.13M41.34,25.2c-1.1.09-2.01.47-2.91.85-2.58,1.09-3.69,2.89-3.51,5.67.09,1.45,1.07,2.59,2.39,2.77,1.68.23,3.17-.58,3.59-2.03.2-.68.33-1.41.37-2.12.07-1.14.05-2.28.07-3.43,0-.53,0-1.07,0-1.72"/>
  <path class="cls-1" d="M145.68,30.92c.2.14.43.27.63.45.68.62.76,1.16.16,1.88-2.68,3.27-5.97,5.34-10.36,5.4-2.63.04-5.17-.25-7.54-1.46-3.09-1.57-5.39-3.92-6.72-7.14-.5-1.2-.72-2.47-.77-3.78-.19-4.96,1.54-9.01,5.59-11.97,1.79-1.3,3.83-2.01,6.01-2.28,2.81-.34,5.6-.28,8.27.79,4.04,1.63,6.33,4.64,6.87,8.97,0,.06,0,.12.01.18.07,1.27-.12,1.48-1.4,1.48-4.64,0-9.27,0-13.91,0-1.49,0-1.53,0-1.48,1.52.05,1.53.11,3.07.34,4.58.35,2.22,1.45,3.97,3.75,4.63.82.23,1.73.34,2.58.29,2.29-.15,4.42-.88,6.33-2.16.57-.38,1.05-.88,1.62-1.37M131.52,21.02c.35.02.7.07,1.05.06,1.14-.02,2.28-.04,3.42-.1.48-.02.95-.1,1.42-.21.64-.15,1-.57,1.16-1.23.25-1,.14-1.98-.17-2.93-.36-1.09-.97-2.01-2.22-2.26-1.48-.3-2.8.33-3.51,1.73-.72,1.41-1.02,2.94-1.21,4.5-.01.11.03.23.06.45"/>
  <path class="cls-1" d="M116.51,31.62c.11.06.2.09.27.14,1.17.96,1.24,1.49.2,2.58-1.92,2.02-4.28,3.32-6.99,3.9-4.56.97-8.85.32-12.72-2.43-3.3-2.35-5.07-5.55-5.32-9.59-.16-2.57.18-5.05,1.41-7.35,1.43-2.65,3.63-4.5,6.37-5.62,5.1-2.09,10.15-1.98,15.05.67,1.1.59,2.05,1.37,2.72,2.45,1.24,1.99.42,5.51-2.31,6.02-1.42.26-3.3.02-4.18-1.88-.35-.76-.64-1.56-.94-2.34-.26-.67-.52-1.35-.75-2.03-.73-2.17-2.79-2.12-4.15-1.53-.95.41-1.66,1.12-2.07,2.05-.34.76-.6,1.58-.76,2.4-.46,2.44-.51,4.91-.37,7.37.1,1.68.39,3.34,1.05,4.92.69,1.65,1.9,2.61,3.61,2.93,3.36.63,6.37-.32,9.14-2.19.17-.12.33-.26.51-.38.05-.03.11-.05.22-.1"/>
  <path class="cls-1" d="M.9,36.94c-.31-2.61-.61-5.08-.9-7.54,1.02-.7,1.96-.48,2.44.55.73,1.57,1.68,2.99,2.98,4.15,1.17,1.04,2.47,1.82,4.07,1.98.33.03.66.03.99.01,2.41-.17,3.35-2.08,2.98-4.14-.18-1-.87-1.71-1.77-2.17-1.5-.76-3.02-1.49-4.55-2.19-1.65-.75-3.17-1.7-4.59-2.83-2.24-1.79-2.69-5.42-1.32-7.82.53-.93,1.24-1.71,2.09-2.34,2.87-2.13,6.07-3.08,9.66-2.76,1.3.11,2.54.44,3.79.77,1.01.27,2.05.44,3.15.67.03.14.1.33.11.53.11,1.83.21,3.66.3,5.5.04.74-.03.83-.63.98-.75.18-1.37,0-1.58-.48-.24-.55-.41-1.13-.66-1.68-.69-1.54-1.8-2.68-3.33-3.42-1.2-.58-2.45-.57-3.69-.17-2.32.74-2.22,3.54-1.07,4.65.49.47,1.07.89,1.68,1.18,1.59.78,3.23,1.47,4.84,2.2,1.43.65,2.76,1.47,3.98,2.46,1.83,1.48,2.24,3.49,1.96,5.7-.39,3.08-2.22,5.12-4.88,6.5-2.08,1.08-4.34,1.41-6.65,1.38-1.05-.02-2.1-.13-3.14-.26-.53-.07-1.08-.2-1.56-.42-1.11-.52-2.26-.79-3.48-.85-.38-.02-.77-.08-1.22-.14"/>
  <path class="cls-1" d="M131.52,2.75c.6-.28,1.04-.25,1.44.14.12-.07.22-.13.32-.19,1.33-.82,2.41-.44,2.86,1.05.24.79.27,1.61.01,2.4-.39,1.2-1.26,1.62-2.46,1.25-.11-.03-.23-.05-.47-.1-.01.4-.03.74-.03,1.08,0,.33,0,.65,0,1.06-.34.09-.68.17-1.14.29-.35-2.37-.29-4.67-.53-6.97M134.93,5.06c-.02-.31-.02-.61-.07-.9-.12-.64-.51-.99-1-.94-.54.06-.93.52-.91,1.14.02.48.06.96.12,1.43.08.59.34.84.84.86.46.01.83-.28.94-.79.06-.26.05-.53.07-.8"/>
  <path class="cls-1" d="M126.1,5.24c-.16-.2-.29-.36-.46-.57.74-.72,1.56-1.16,2.57-1.19.69-.02,1.12.37,1.38.97.23.56.43,1.12.66,1.68.12.27.23.56.42.78.22.26.35.53.19.81-.19.33-.52.2-.81.13-.11-.03-.23-.07-.38-.11-.19.23-.36.49-.57.68-.49.45-1.07.7-1.74.51-.57-.16-.89-.58-1.03-1.15-.14-.6.06-1.08.51-1.44.32-.26.72-.44,1.08-.64.26-.14.59-.21.49-.63-.09-.36-.42-.59-.84-.5-.32.07-.62.23-.92.36-.16.07-.32.17-.56.3M128.73,6.22c-.79.13-1.16.39-1.2.84-.03.36.12.66.46.81.38.16.71.02.95-.29.3-.37.24-.71-.21-1.36"/>
  <path class="cls-1" d="M145.38,5.84c.07-.24.13-.46.19-.7.85.14,1.53.49,2.13,1.01.66.58.79,1.23.38,2.02-.24.45-.55.86-.8,1.3-.21.39-.34.82-.55,1.21-.12.22-.32.4-.58.7-.29-.43-.51-.76-.8-1.2-.15,0-.42.02-.68,0-1.02-.1-1.72-.92-1.58-1.81.15-.91.94-1.47,1.84-1.25.4.1.77.32,1.15.5.27.13.54.36.79.02.24-.33.23-.69-.07-.98-.19-.18-.44-.31-.67-.44-.23-.13-.47-.24-.76-.38M145.31,8.02c-.47-.05-.91.29-.96.73-.04.37.27.7.72.77.51.08,1.06-.35,1.08-.84,0-.3-.39-.6-.84-.66"/>
  <path class="cls-1" d="M142.48,8.77c-.28,0-.52.03-.75,0-1.16-.17-1.67-.93-1.34-2.07.17-.61.4-1.2.6-1.8.12-.35.24-.65-.15-.96-.27-.21-.15-.57.16-.71q.67-.32,1.05-.9c.31.07.65.14,1.05.22-.06.65-.43,1.42.6,1.55q-.09.75-1.16.64c-.43.76-.63,1.64-.89,2.48-.11.35.17.56.48.65.44.13.57.38.38.9"/>
  <path class="cls-1" d="M124.04,5.66c.19.5.1.75-.39.95-1,.41-1.16.96-.65,1.92.04.08.08.16.13.24.92,1.38,1.8,1.22,2.46.21.03-.05.09-.08.21-.17.19.08.43.17.62.25.12.72-1.01,1.7-2.02,1.83-1.38.18-2.78-1.14-2.88-2.73-.09-1.4.96-2.47,2.51-2.49"/>
  <path class="cls-1" d="M148.34,13.33c-1.13-.53-1.43-1.39-.72-2.16,1.32-1.43,2.73-2.78,4.15-4.22.36.28.66.51,1,.78-.16.21-.26.39-.4.53-1.05,1.07-2.12,2.13-3.17,3.19-.33.33-.75.6-.54,1.21.06.17-.21.45-.32.67"/>
  <path class="cls-1" d="M138.61,7.72c-.48-.09-.8-.14-1.1-.2-.12-.73.26-3.41.69-4.84.35.05.71.1,1.19.17-.26,1.64-.51,3.19-.78,4.87"/>
  <path class="cls-1" d="M139.15,1.53c-.39.02-.77-.3-.8-.69-.03-.42.26-.79.65-.83.42-.05.84.31.86.73.02.41-.29.76-.7.79"/>
</svg>