<?xml version="1.0" encoding="UTF-8"?>
<svg id="Layer_1" data-name="Layer 1" xmlns="http://www.w3.org/2000/svg" version="1.1" viewBox="0 0 148.47 117.54">
  <defs>
    <style>
      .cls-1 {
        fill: #666;
        stroke-width: 0px;
      }
    </style>
  </defs>
  <path class="cls-1" d="M92.89,40.92c-3.42-10.79-15.2-13.13-23.83-9.81-8.64,3.33-15.64,12.42-18.08,22.49-2.43,10.08-1.71,28.06,12.5,31.12,14.21,3.06,24.82-9.09,24.82-9.09l-7.73-8.27s-1.8,1.8-4.5,3.87c-2.7,2.07-14.31,4.41-13.94-8.64h28.42s5.76-10.88,2.34-21.67h0ZM80.84,51.17l-16.09-.72s1.89-7.91,9.98-8.18c8.09-.27,6.12,8.9,6.12,8.9h0Z"/>
  <path class="cls-1" d="M110.07,21.94l-2.7,10.16-9.09.81v12.95l5.89-.45s-.85,10.16-2.2,20.23c-1.35,10.07,3.06,19.07,14.3,19.56l5.39-12.36s-5.76-.63-5.39-5.49,2.34-23.75,2.34-23.75l9.35-.99v-12.92l-8.01,1.04,1.17-8.82h-11.06,0Z"/>
  <path class="cls-1" d="M47.02,34.98h-13.4s-4.41,34.89-5.49,42.9-1.89,9.8-7.64,11.06l1.62,12.36s16.01-1.57,18.97-18.12,5.94-48.21,5.94-48.21Z"/>
  <ellipse class="cls-1" cx="41.96" cy="24.13" rx="8.11" ry="7.27" transform="translate(.08 48.41) rotate(-60)"/>
</svg>