<?xml version="1.0" encoding="UTF-8"?>
<svg id="Layer_1" data-name="Layer 1" xmlns="http://www.w3.org/2000/svg" version="1.1" viewBox="0 0 154.2 64">
  <defs>
    <style>
      .cls-1 {
        fill: #666;
        stroke-width: 0px;
      }
    </style>
  </defs>
  <path class="cls-1" d="M120.9,58.1c0-1.7.1-3.1.1-4.5,0-1.5.1-3.1.1-4.6,0-1.4.1-2.8.1-4.2,0-1.3.1-2.6.1-3.8s.1-2.4.1-3.6c0-1.1.1-2.1.1-3.2.1-1.2.1-2.4.2-3.6.1-1.4,1.4-2.5,2.7-2.6,1.6-.1,3.2,1.4,3.2,3.1,0,.3,0,.6-.1.8-.1,1.3-.1,2.6-.2,3.8-.1,1.8-.1,3.5-.1,5.3-.1,1.8-.1,3.6-.1,5.4,0,1.6-.1,3.3-.1,4.9,0,1.3-.1,2.6-.2,3.9-.1,1.5-.1,2.9-.3,4.4-.1.8-.3,1.5-.8,2.1-.8,1-2,1.3-3.1.7-1.1-.5-1.7-1.4-2-2.5v-.4c.3-.4.3-1,.3-1.4h0Z"/>
  <path class="cls-1" d="M23.6,10.3c-.4-2.6-1.5-4.9-3.3-6.9C18.3,1.3,15.7.2,12.8,0c-1.8-.1-3.6,0-5.3.5-1,.3-2,.7-2.8,1.4-.6.5-1,1.1-1.1,1.9-.1.6-.1,1.2-.1,1.8-.1,1-.1,2.1-.2,3.1-.1,1.3-.2,2.6-.3,3.9-.1,1-.1,2-.2,2.9-.1,1.3-.2,2.6-.3,3.8-.1,1-.1,1.9-.2,2.9-.1,1.2-.2,2.5-.3,3.7-.1,1-.1,2-.2,2.9-.1,1.3-.2,2.6-.3,3.8-.1.9-.1,1.9-.2,2.8-.1,1.3-.2,2.6-.3,3.9-.1,1-.1,1.9-.2,2.9-.1,1.3-.2,2.6-.3,3.9,0,.6-.1,1.2-.1,1.8-.1.9-.1,1.9-.2,2.8,0,.6-.1,1.3-.1,1.9-.1.9-.1,1.7-.1,2.6v.2c0,.8,0,1.6.3,2.4.3,1,.9,1.7,1.8,2.1.5.2,1.1.3,1.7.2,1.1-.1,2.4-.8,2.7-2.4.1-.9.3-1.7.3-2.6,0-.7.1-1.4.1-2.1.1-1.2.2-2.4.3-3.6.1-.9.1-1.8.2-2.7.1-1.5.2-2.9.3-4.4.1-1.2.2-2.3.3-3.5.1-1.4.2-2.7.3-4.1.1-1.1.2-2.1.3-3.2.1-1.5.3-3,.4-4.6.1-.7.2-1.5.3-2.2,0-.3.2-.4.4-.5.3-.1.6-.3.8-.4,1-.4,2.1-.6,3.1-.8,1.5-.3,3-.8,4.3-1.5,2.1-1.2,3.6-2.8,4.5-5,1.2-1.8,1.5-4,1.2-6.2ZM17.3,11.8c-.1,1.6-.9,2.8-2,3.8-1.2,1-2.6,1.6-4.1,1.9-.4.1-.7.2-1.1.3-.5.1-.8-.1-.8-.7v-2.4h0c.1-1.7.2-3.5.3-5.2,0-.7.1-1.4.1-2s.3-1,.8-1.2c.6-.3,1.2-.3,1.8-.2,1.6.3,2.9,1.1,3.9,2.4,1,.9,1.2,2,1.1,3.3Z"/>
  <path class="cls-1" d="M153.9,17.7c-.1-.3-.2-.4-.5-.4-2-.4-3.9-.9-5.7-1.7-2.2-1-4-2.4-5.5-4.4-.6-.9-1.2-1.8-1.7-2.7-.5-.9-1.1-1.8-1.9-2.5-1.7-1.5-3.7-2-5.9-1.9-1.2,0-2.3.2-3.4.5-3.9,1.1-6.7,3.4-8.5,7-.8,1.5-1.1,3.1-1,4.8.1,1.8.7,3.5,1.8,5,1.3,1.8,3.2,2.9,5.4,3,1.6.1,2.9-.4,4.1-1.5s1.8-2.6,2-4.2c.1-.3.1-.7,0-1.1-.2.2-.1.4-.2.5-.3,1.3-.7,2.5-1.6,3.5-1.2,1.4-2.6,2.1-4.5,1.8-1.2-.2-2.3-.7-3.2-1.6-.9-.8-1.5-1.9-1.9-3-.3-.9-.5-1.8-.5-2.8,0-1.2.3-2.3.8-3.3,1.7-3.3,4.3-5.6,7.9-6.6,1.3-.4,2.7-.6,4.1-.5,2.1.2,3.7,1.1,4.8,2.9.4.7.9,1.4,1.3,2.1,1,1.6,2.2,3,3.6,4.1,1.5,1.2,3.2,2,5,2.6,1.2.4,2.5.7,3.8.9.2,0,.3.1.3.3.2.7.3,1.5.2,2.2-.2,1.9-1,3.5-2.4,4.7-.9.8-1.8,1.4-3,1.7-1,.2-2,.1-3,.1-.6,0-1.2-.1-1.8,0-.5,0-.9.2-1.4.2-.6,0-1.1,0-1.7.1-1,.1-2,.3-2.8.8-2.1,1.2-3.7,2.9-4.7,5.1-.6,1.3-.9,2.6-1.3,4-.4,1.8-.7,3.5-1,5.3-.2,1.4-.4,2.7-.6,4.1-.2,1.2-.3,2.4-.4,3.6-.2,1.5-.3,2.9-.4,4.4-.1.9-.1,1.8-.2,2.6-.1,1.1,0,2.2.3,3.2.2.7.6,1.3,1.1,1.8,1.2.9,2.9.6,3.9-.6.6-.7.8-1.5.8-2.4,0-.8.1-1.6.2-2.4.1-.9.2-1.9.3-2.8.1-.7.5-1.1,1.2-1.2.3,0,.5-.1.8-.1,1.4,0,2.8.1,4.1.2.4,0,.9.1,1.3.2.5.1.7.4.7.9v2.1c0,1.2,0,2.5.1,3.7.2,1.6,1.6,2.7,3,2.8,1.2.1,2.1-.5,2.6-1.5.5-.9.7-2,.8-3,.1-.8.1-1.5.1-2.3.1-1.5.1-3,.1-4.5v-6c0-1,0-2.1-.1-3.1,0-1.1-.1-2.2-.2-3.4-.1-1.3-.2-2.7-.4-4-.2-1.4-.6-2.7-1.3-4-.9-1.7-2.2-2.9-4.1-3.4-.1,0-.2-.1-.3-.1.7-.1,1.3,0,1.9.1,1,.1,1.9.1,2.8-.2,1.6-.5,2.9-1.5,3.9-2.8,2.2-2.1,2.7-4.4,2-6.9ZM143.9,46.4c0,.2,0,.4-.1.6-.1.5-.5.8-.9.7-1.2,0-2.3-.1-3.5-.1-.5,0-1-.1-1.5-.1-.7-.1-.8-.1-.9-.9-.1-.3,0-.7,0-1,.2-2.5.5-5,1.1-7.4.3-1.1.7-2.2,1.3-3.1.3-.4.7-.8,1.1-1,.9-.6,2.4,0,2.8.9.2.5.3,1,.4,1.6.2,2.1.3,4.1.3,6.3,0,1.1-.1,2.3-.1,3.5Z"/>
  <path class="cls-1" d="M88.6,34.6c0-1.4,0-2.8-.1-4.2,0-1.8-.1-3.7-.2-5.5-.1-1-.2-2.1-.4-3.1-.2-1.3-.6-2.6-1.3-3.7-.9-1.4-2-2.4-3.6-3-1.4-.5-2.8-.7-4.3-.5-.9.1-1.7.3-2.5.6-1.5.7-2.8,1.8-3.9,3.1-1.1,1.4-1.8,3-2.2,4.7-.7,2.7-1.1,5.4-1.5,8.2-.2,1.7-.4,3.4-.6,5.2-.2,1.9-.4,3.9-.6,5.8-.1,1.1-.2,2.2-.3,3.3-.1,1-.2,2-.1,3,0,.9.2,1.8.5,2.7.5,1.1,1.4,1.9,2.7,1.8.9,0,2.2-.8,2.5-1.9.2-.9.3-1.7.3-2.6.1-.9.1-1.8.1-2.7s.2-1.9.2-2.8c.1-.6.1-1.1.2-1.7.1-.5.4-.8.9-1,.3-.1.6-.1.9-.1,1.4,0,2.9.1,4.3.2.4,0,.7.1,1.1.1.5.1.9.3.9,1v11c0,1.9.1,3.7.1,5.5,0,.4.1.7.3,1,.4.7,1,1.1,1.7,1.4,1.5.6,2.9.1,3.6-1.3.4-.7.6-1.5.7-2.3.1-1.1.1-2.2.2-3.3,0-1,0-2.1.1-3.1v-3.5c.4-4.1.4-8.2.3-12.3ZM82.3,33.9c0,.2,0,.3-.1.5-.2.4-.5.6-1,.6-1.1,0-2.2,0-3.3-.1-.6,0-1.3-.1-1.9-.2-.4-.1-.5-.2-.6-.6-.1-.3-.1-.7-.1-1,.2-2.7.5-5.4,1.2-8,.3-1,.6-1.9,1.2-2.7.3-.4.7-.8,1.2-1.1.9-.5,2.3,0,2.7.9.2.4.3.9.4,1.4.2,1.7.3,3.3.3,5v1.4c0,1.3.1,2.6,0,3.9Z"/>
  <path class="cls-1" d="M60.1,61.2h-14.3c-2.5,0-3.7-1.9-3.8-3.7,0-.6.1-1.3.4-1.9.4-1,1-1.8,1.7-2.6.9-1,1.9-2,2.9-3,2.9-3,5.8-6.1,8.5-9.3,1.3-1.6,2.5-3.2,3.5-4.9.4-.6.7-1.3,1-2s0-1.1-.5-1.4c-.6-.3-1.3-.4-2-.5-.9-.1-1.7-.1-2.6,0-.9,0-1.8.1-2.8.2h-.8c-1.7.1-3.3.1-5,.1-.6,0-1.3-.1-1.9-.1-1.5-.1-2.2-1.3-2.5-2.2-.3-1.2.1-2.2,1-3,.6-.5,1.3-.8,2.1-.9.7-.1,1.5-.1,2.2-.2,1.6-.1,3.2-.1,4.8-.2,2-.1,4.1-.1,6.1,0,1.9.1,3.8.5,5.6,1.3,1.6.8,2.5,2.1,2.8,3.9.2,1.4,0,2.7-.5,4.1-.9,2.6-2.2,5.1-3.9,7.3-1.3,1.6-2.7,3.2-4.1,4.7-1.3,1.4-2.6,2.7-3.9,4.1-1,1-1.9,2-2.8,3-.1.2-.3.3-.4.5-.2.3-.1.4.2.5s.7.1,1,.1h4c1.1,0,2.1,0,3.2-.1.9,0,1.9,0,2.8-.1,1,0,1.9,0,2.9-.1.9,0,1.8,0,2.8-.1,1.1-.1,2.1,0,3.2-.1,1.5-.1,3.1-.1,4.6-.1,1,0,1.9.3,2.6,1,.9.8,1.1,1.9.8,3-.2,1-.8,1.6-1.7,2-.6.2-1.2.4-1.8.4-.8.1-1.6.1-2.4.1-4.8.2-9.6.2-13,.2h0Z"/>
  <path class="cls-1" d="M99,40.6c0,.6-.1,1.1-.1,1.6-.1,1.1-.1,2.1-.2,3.2,0,.7-.1,1.4-.1,2.1-.1,1.1-.1,2.2-.2,3.3,0,.7-.1,1.4-.1,2.1-.1,1.1-.1,2.2-.2,3.3,0,.7-.1,1.5-.2,2.2-.1.6-.2,1.2-.5,1.8-.5,1-1.4,1.5-2.6,1.5s-2-.6-2.5-1.7c-.4-.8-.4-1.7-.3-2.5.1-1,.1-1.9.2-2.9.1-1.2.2-2.4.3-3.6.1-.9.1-1.9.2-2.8.1-1.2.2-2.5.3-3.7.1-1,.1-1.9.2-2.9.1-1.3.2-2.5.3-3.8.1-1,.1-1.9.2-2.9.1-1.4.2-2.8.3-4.2.1-.8.3-1.6.8-2.3.4-.6.9-1.1,1.7-1.2.8-.2,1.6-.1,2.3.5.5.4.9.9,1.3,1.4.7,1.1,1.3,2.3,1.8,3.4,1.2,2.6,2.1,5.3,3,8s1.8,5.4,2.7,8.1c.5,1.4,1,2.7,1.6,4,.2.4.4.7.6,1.1.1.2.2.3.4.4.4.3.7.3,1.1,0,.2-.2.3-.5.4-.8.2-.6.3-1.1.3-1.7.2-1.4.3-2.8.4-4.1.1-1,.2-2.1.3-3.1.1-1.2.2-2.5.3-3.7,0-.8.1-1.5.1-2.3,0-1.2.1-2.4.1-3.6,0-.9,0-1.8.1-2.7,0-1.1.1-2.2.5-3.2.2-.5.5-1,.9-1.4.8-.6,1.6-.7,2.5-.3.9.4,1.5,1.1,1.9,2,.4,1,.5,2.1.4,3.1-.1,1.6-.2,3.1-.3,4.7-.1,1.2-.2,2.5-.3,3.7s-.2,2.3-.3,3.5c-.1.9-.1,1.9-.2,2.8-.2,2.5-.3,5-.9,7.4-.3,1.1-.6,2.2-1.2,3.2-.8,1.2-1.7,2.1-2.9,2.8-.8.5-1.7.7-2.6.7-1.2,0-2.3-.4-3.2-1.1-1.1-.8-1.8-1.8-2.5-3-.7-1.1-1.1-2.4-1.6-3.6-1-2.7-1.8-5.4-2.7-8.1-.5-1.4-.9-2.8-1.4-4.2-.3-.3-.3-.4-.4-.5h0Z"/>
  <path class="cls-1" d="M38.7,16.8h10.3c2.3.1,4.5,0,6.8.1,1.1,0,2.2,0,3.3.1,1.1,0,2.2.1,3.2.1,1,.1,1.8.6,2.4,1.3.8,1,.8,2.6-.4,3.7-.6.5-1.2.8-2,.8-3.3.2-6.5.2-9.8.2h-10.4c-1.1,0-2.1,0-3.2.1-.2,0-.5.1-.7.1-.3.1-.4.2-.5.5-.1.6-.2,1.1-.2,1.7-.1,1.3-.2,2.7-.2,4,0,1.1-.1,2.2-.1,3.3-.1,1.4-.1,2.8-.1,4.1v3c0,1.1,0,2.3-.1,3.4,0,.9,0,1.7-.1,2.6-.1,1.1-.1,2.2-.1,3.4,0,1.1-.1,2.2-.1,3.3s-.1,2.3-.2,3.4c-.1.9-.1,1.7-.2,2.6-.1.9-.1,1.7-.3,2.6-.1.6-.4,1.1-.7,1.6-.4.6-.9.9-1.5,1-1,.2-1.9.2-2.8-.3-.5-.2-.8-.6-1-1.1-.4-.9-.5-1.8-.4-2.7,0-.9.1-1.8.2-2.7.1-1.4.2-2.8.3-4.2,0-.7.1-1.5.1-2.2.1-1.2.1-2.4.2-3.6,0-.8.1-1.7.1-2.5.1-1.3.1-2.5.2-3.8,0-.8.1-1.7.1-2.5.1-1.2.1-2.4.2-3.6,0-.8.1-1.6.1-2.4.1-1,.1-2.1.2-3.1,0-.6.1-1.2.1-1.8.1-1,.1-2,.2-3v-.7c0-.3-.2-.5-.5-.6-.5-.1-1-.1-1.5-.1h-2.4c-1.3-.1-2.3-.6-3-1.6-.8-1.1-.6-2.6.4-3.5.7-.6,1.5-.9,2.4-1,.7-.1,1.3-.1,2-.1,3.2.1,6.4.1,9.7.1h0Z"/>
  <path class="cls-1" d="M20.6,24.8h2.9c1,0,2,.1,3,.2,1.3.2,2.3.8,2.8,2.1.5,1.1.4,2.1-.3,3.1-.4.5-1,.8-1.6,1-1,.3-1.9.3-2.9.3-1.4,0-2.8-.2-4.2-.3-.6,0-1.2-.1-1.8-.1-.5,0-.9.2-1.1.6-.3.5-.5,1-.5,1.6-.1.9-.1,1.9-.2,2.8-.1,1-.1,1.9-.2,2.9v.9c0,.5.3.9.8,1,.7.1,1.3.1,2,0,.9-.1,1.8-.3,2.6-.2.7,0,1.3.3,1.8.7.6.6.8,1.3.7,2.2-.2,1.5-.9,2.6-2.3,3.2-.8.4-1.7.5-2.6.6-.9,0-1.8,0-2.8-.1-.4-.1-.6.1-.7.6-.1,1.6-.1,3.2-.1,4.9,0,.3.2.5.5.7s.7.2,1,.2h1.3c1.4-.1,2.8-.3,4.2-.5,1-.1,2-.1,3,.3.7.3,1.3.7,1.6,1.4.5.9.5,1.9,0,2.8-.4.7-.9,1.3-1.7,1.6-1.1.4-2.2.7-3.4.8-1.5.2-2.9.3-4.4.2-1.3-.1-2.7-.1-3.9-.5-1.3-.4-2.4-1-3.3-2.1-.7-.9-1.1-1.9-1.3-3-.1-.7-.2-1.4-.2-2.2v-4.3c0-1.2.1-2.3.2-3.5.1-.8.1-1.6.2-2.5.2-1.8.3-3.5.6-5.2.2-1.5.3-3,.5-4.5.2-1.3.3-2.6.5-4,.1-.8.4-1.5.9-2.1s1.2-1,1.9-1.2,1.5-.3,2.3-.4c1.6,0,2.9,0,4.2,0h0Z"/>
  <path class="cls-1" d="M109.4,5.4c0,.3,0,.6-.1.8,0,1.1-.1,2.1-.1,3.2q0,.3-.3.3c-.8,0-1.6-.1-2.5-.1-2,.1-3.9.4-5.7,1.3-1,.5-1.9,1.1-2.5,2-.4.7-.7,1.4-.8,2.2-.1.4-.2.6-.7.8-1.3.4-2.5,1-3.6,1.9-.3.2-.5.5-.7.7-.3.4-.3.9-.1,1.4.3.7.8,1.3,1.4,1.9.6.7,1.3,1.3,2,1.9.1.1.2.2.3.3q.1.1,0,.2c-.1.1-.1,0-.2,0-.4-.3-.8-.6-1.2-.9-.8-.6-1.7-1.3-2.4-2.1-.3-.3-.6-.7-.8-1.1-.3-.7-.3-1.4,0-2.1s.8-1.2,1.3-1.7c.8-.7,1.8-1.3,2.8-1.8.2-.1.4-.3.4-.5.3-2,1.5-3.5,3.1-4.6,1.3-.9,2.8-1.4,4.3-1.7,1-.2,2.1-.4,3.2-.4q.3,0,.3-.3V1.1c.1,0,.2.1.3.1,1.6.9,3.2,1.9,4.6,3.1,2.4,2.1,4.4,4.5,6,7.2.1.2.2.5,0,.7-.6,1.5-.9,3.1-.8,4.7.2,2.8,1.2,5.1,3.2,7.1,1.4,1.3,3,2.1,4.8,2.3,3.2.4,5.9-.5,8.4-2.6.2-.2.4-.4.6-.6.1-.1.1-.2.2-.1.1.1,0,.2,0,.2-.4.6-.9,1.1-1.5,1.6-1.6,1.4-3.4,2.2-5.4,2.6-2.6.4-5,0-7.2-1.4-2.1-1.3-3.5-3.2-4.4-5.4-1.1-2.7-1.2-5.5-.4-8.3.1-.3,0-.5-.1-.7-1.6-2.4-3.5-4.5-5.8-6.3.3.2.2.1.1.1h0Z"/>
</svg>