<?xml version="1.0" encoding="UTF-8"?>
<svg id="Layer_1" data-name="Layer 1" xmlns="http://www.w3.org/2000/svg" version="1.1" viewBox="0 0 170.27 33.68">
  <defs>
    <style>
      .cls-1 {
        fill: #666;
        stroke-width: 0px;
      }
    </style>
  </defs>
  <g>
    <path class="cls-1" d="M46.13,31.7c-1.27,0-2.46-.1-3.57-.3-1.11-.2-2.15-.5-3.11-.91l.35-2.69c1.16.47,2.29.83,3.38,1.07s2.16.36,3.2.36c1.67,0,2.91-.29,3.73-.87.82-.58,1.23-1.46,1.23-2.63,0-1.52-.75-2.63-2.24-3.36l-4.71-2.29c-1.4-.67-2.47-1.47-3.21-2.4-.74-.94-1.11-2.09-1.11-3.45,0-1.97.59-3.47,1.76-4.52s2.87-1.57,5.08-1.57c1.49,0,2.83.23,4.01.68,1.18.45,2.29,1.17,3.33,2.15l-1.86,1.87c-.97-.76-1.89-1.33-2.77-1.69s-1.78-.54-2.7-.54c-1.31,0-2.31.29-3,.88-.69.59-1.03,1.46-1.03,2.62,0,.77.2,1.42.61,1.93s1.01.96,1.81,1.35l4.15,2.05c1.55.74,2.72,1.6,3.52,2.59.8.98,1.19,2.2,1.19,3.65,0,2.01-.66,3.52-1.99,4.52s-3.34,1.5-6.04,1.5Z"/>
    <path class="cls-1" d="M64.88,31.7c-1.85,0-3.28-.53-4.28-1.6-1.01-1.07-1.51-2.58-1.51-4.53v-11.29h2.79v11.29c0,1.15.32,2.04.97,2.66.65.62,1.55.94,2.73.94,1.41,0,2.47-.44,3.19-1.31.72-.87,1.08-2.33,1.08-4.39l.87,4.61h-1.06c-.29,1.15-.85,2.04-1.69,2.67-.83.63-1.86.94-3.09.94ZM69.84,26.54v-12.26h2.79v11.82l-2.79.44ZM70.13,31.54l-.24-4.1-.05-3h2.79v4.49l2.35.29v2.16l-4.86.16Z"/>
    <path class="cls-1" d="M78.72,31.38V7.18h2.76l.03,23.91-2.79.29ZM82.9,31.7c-.7,0-1.39-.03-2.08-.09-.69-.06-1.39-.14-2.1-.23l1.21-2.55c.53.2,1.11.33,1.75.37.64.04,1.27.06,1.9.06,2.3,0,4.08-.66,5.33-1.98s1.88-3.18,1.88-5.59c0-1.7-.38-3.01-1.15-3.93-.76-.92-1.86-1.38-3.27-1.38-3.24,0-4.86,1.79-4.86,5.37l-1-4.39h1.26c.37-2.28,1.95-3.42,4.76-3.42,2.24,0,3.97.67,5.19,2.02,1.23,1.34,1.84,3.25,1.84,5.73,0,3.17-.93,5.63-2.79,7.38-1.86,1.75-4.48,2.62-7.87,2.62Z"/>
    <path class="cls-1" d="M96.74,31.38v-2.48h11.29v2.48h-11.29ZM97.38,16.76v-2.48h5.26l.23,2.48h-5.49ZM100.74,31.38V14.28h2.24l.53,4.9v12.2h-2.77ZM103.51,24.02l-1-5.36h1.26c.3-3.14,1.93-4.71,4.89-4.71,1.8,0,3.1.51,3.9,1.52.81,1.01,1.21,2.65,1.21,4.9h-2.77c0-1.41-.22-2.42-.67-3.05-.45-.62-1.17-.94-2.17-.94-1.56,0-2.72.66-3.49,1.98-.77,1.32-1.15,3.2-1.15,5.65Z"/>
    <path class="cls-1" d="M121.86,31.7c-1.75,0-3.11-.42-4.07-1.25-.96-.83-1.44-2-1.44-3.51,0-1.81.66-3.18,1.97-4.12,1.31-.94,3.2-1.41,5.66-1.41,1.08,0,2.05.06,2.94.18.88.12,1.62.3,2.23.53l-.52,1.98c-.71-.21-1.47-.32-2.29-.36s-1.63-.05-2.44-.05c-3.26,0-4.89,1.03-4.89,3.1,0,.83.28,1.47.84,1.91.56.45,1.35.67,2.37.67,1.13,0,2.1-.19,2.9-.58.81-.39,1.42-.89,1.85-1.51.42-.62.64-1.28.64-1.99v-1.92l1.08,4.39h-1.39l.47-.45c-.03.92-.3,1.72-.81,2.37-.51.66-1.19,1.16-2.06,1.5-.87.34-1.89.52-3.05.52ZM128.2,31.54l-.24-5.63-.34-.81v-4.16c0-1.45-.43-2.51-1.3-3.17-.87-.66-2.2-1.01-4.01-1.04l-3.86-.1.32-2.52,3.32.05c2.81.04,4.88.66,6.21,1.84,1.33,1.18,2,2.96,2,5.34v7.57l2.92.31v2.16l-5.03.16Z"/>
    <path class="cls-1" d="M135.29,16.76v-2.48h15.23v2.48h-15.23ZM139.91,23.31v-14.2h2.78v14.2h-2.78ZM146.81,31.7c-2.4,0-4.15-.55-5.25-1.65-1.1-1.1-1.65-2.83-1.65-5.17v-2.86h2.78v2.74c0,1.51.35,2.62,1.06,3.33.71.72,1.84,1.07,3.39,1.07.58,0,1.17-.03,1.77-.09.6-.06,1.25-.14,1.94-.25l.32,2.48c-.73.13-1.44.23-2.14.29-.69.06-1.43.1-2.22.1Z"/>
    <path class="cls-1" d="M164.56,31.7c-2.87,0-5.09-.78-6.66-2.33-1.56-1.55-2.35-3.77-2.35-6.64s.66-4.94,1.98-6.48c1.32-1.53,3.19-2.3,5.6-2.3,2.27,0,4.03.69,5.27,2.08,1.24,1.39,1.86,3.38,1.86,5.98,0,.72-.03,1.37-.1,1.94h-12.31v-2.23h9.83c0-1.69-.4-2.99-1.19-3.9s-1.9-1.37-3.32-1.37c-1.58,0-2.81.54-3.68,1.61-.87,1.08-1.31,2.6-1.31,4.56,0,2.12.59,3.74,1.77,4.87,1.18,1.13,2.84,1.69,4.99,1.69.68,0,1.36-.04,2.06-.12.69-.08,1.38-.19,2.07-.33l.36,2.5c-.88.17-1.74.29-2.57.35s-1.6.1-2.31.1Z"/>
  </g>
  <g>
    <g>
      <polygon class="cls-1" points="8.5 .32 .32 .32 8.5 8.5 16.68 8.5 8.5 .32"/>
      <polygon class="cls-1" points=".32 8.5 8.5 16.68 8.5 8.5 .32 .32 .32 8.5"/>
    </g>
    <g>
      <polygon class="cls-1" points="25.18 0 16.68 0 25.18 8.5 33.68 8.5 25.18 0"/>
      <polygon class="cls-1" points="16.68 8.5 25.18 17 25.18 8.5 16.68 0 16.68 8.5"/>
    </g>
    <g>
      <polygon class="cls-1" points="25.18 33.36 33.36 33.36 25.18 25.18 17 25.18 25.18 33.36"/>
      <polygon class="cls-1" points="33.36 25.18 25.18 17 25.18 25.18 33.36 33.36 33.36 25.18"/>
    </g>
    <g>
      <polygon class="cls-1" points="17 33.68 8.5 33.68 7.29 32.48 0 25.18 8.5 25.18 17 33.68"/>
      <polygon class="cls-1" points="17 25.18 8.5 16.68 8.5 25.18 17 33.68 17 25.18"/>
    </g>
  </g>
</svg>