<?xml version="1.0" encoding="UTF-8"?>
<svg id="Layer_1" data-name="Layer 1" xmlns="http://www.w3.org/2000/svg" version="1.1" viewBox="0 0 458.75 90.32">
  <defs>
    <style>
      .cls-1 {
        fill: #666;
        stroke-width: 0px;
      }
    </style>
  </defs>
  <path class="cls-1" d="M52.83,1.48h-17.12l-16.75,21.16h-5.04V1.48H0v54.35h13.91v-21.51h4.91l18.37,21.51h17.5l-24.49-27.84L52.83,1.48Z"/>
  <path class="cls-1" d="M75.69,1.48h-13.91v54.36h13.91V1.48Z"/>
  <path class="cls-1" d="M113.73,1.48h-24.95v54.36h24.95c18.24,0,30.29-10.79,30.29-27.17S131.97,1.48,113.73,1.48ZM113.44,43.83h-10.75V13.47h10.75c10.83,0,16.04,6.29,16.04,15.18s-5.21,15.18-16.04,15.18h0Z"/>
  <path class="cls-1" d="M150.36,13.16h28.57l-28.62,32.49v10.17h47.16v-11.68h-28.66l28.66-32.49V1.48h-47.11v11.68Z"/>
  <path class="cls-1" d="M309.75,34.62L283.17,1.48h-13.33v54.35h13.91V22.67l26.58,33.16h13.38V1.48h-13.96v33.15Z"/>
  <path class="cls-1" d="M350.7,34.2h28.78v-11.65h-28.78v-9.04h30.58V1.48l-44.49.34v54.01h44.66v-11.68h-30.75v-9.94Z"/>
  <path class="cls-1" d="M389.19,13.51h17.29v42.32h13.91V13.51h17.24V1.48h-48.45v12.03Z"/>
  <path class="cls-1" d="M231.76,0c-16.98,0-30.74,12.83-30.74,28.65s13.77,28.65,30.74,28.65,30.74-12.83,30.74-28.65S248.74,0,231.76,0ZM231.76,44.41c-9.34,0-16.91-7.06-16.91-15.76s7.58-15.76,16.91-15.76,16.91,7.06,16.91,15.76-7.58,15.76-16.91,15.76Z"/>
  <path class="cls-1" d="M231.76,61.67c-16.98,0-30.74,12.83-30.74,28.65h13.83c0-8.7,7.58-15.76,16.91-15.76s16.91,7.06,16.91,15.76h13.83c0-15.82-13.77-28.65-30.74-28.65Z"/>
  <path class="cls-1" d="M458.75,7.49c0,3.29-2.95,6.02-6.57,6.02s-6.62-2.73-6.62-6.02,2.9-6.02,6.62-6.02,6.57,2.7,6.57,6.02ZM457.17,7.49c0-2.61-2.22-4.67-4.99-4.67s-5.05,2.06-5.05,4.67,2.22,4.69,5.05,4.69,4.99-2.09,4.99-4.69ZM454.97,6.46c0,.92-.69,1.56-1.91,1.7l1.96,2.11h-1.53l-1.82-2.1h-.58v2.1h-1.28v-5.6h2.77c1.53,0,2.41.7,2.41,1.78h0ZM451.07,5.72v1.49h1.47c.68,0,1.11-.25,1.11-.76s-.43-.74-1.11-.74h-1.47Z"/>
</svg>