<?xml version="1.0" encoding="UTF-8"?>
<svg id="Layer_2" data-name="Layer 2" xmlns="http://www.w3.org/2000/svg" viewBox="0 0 233.73 59.17">
  <defs>
    <style>
      .cls-1 {
        fill: #f3f3f3;
      }

      .cls-2 {
        fill: #e6e6e5;
      }
    </style>
  </defs>
  <g id="Layer_1-2" data-name="Layer 1">
    <g>
      <g>
        <path class="cls-1" d="M57.45,22.19c-.02,6.08-2.49,11.58-6.48,15.57-4,4-9.53,6.48-15.64,6.48h-11.51l6.16-14.7h0s5.07-.05,5.07-.05c2.04,0,3.88-.83,5.21-2.16,1.34-1.34,2.16-3.18,2.16-5.22,0-4.09-3.37-7.37-7.45-7.37h-11.09L17.79,0h17.39c12.21,0,22.31,9.99,22.27,22.19Z"/>
        <polygon class="cls-2" points="0 0 17.79 0 30 29.55 17.77 59.17 0 59.17 12.29 29.55 0 0"/>
      </g>
      <g>
        <path class="cls-1" d="M77.45,17.3h-10.14v24.56h4.91v-6.96h5.23c6.47,0,10.49-3.37,10.49-8.8s-4.02-8.8-10.49-8.8Zm5.54,8.8c0,2.99-1.99,4.58-5.75,4.58h-5.02v-9.15h5.02c3.76,0,5.75,1.58,5.75,4.58Z"/>
        <path class="cls-1" d="M111.56,26.1c0-5.43-4.02-8.8-10.49-8.8h-10.14v24.56h4.91v-7.03h5.23c.27,0,.55,0,.83-.02l4.92,7.06h5.35l-5.63-8.05c3.24-1.36,5.02-4.09,5.02-7.72Zm-4.95,0c0,2.97-2.04,4.61-5.75,4.61h-5.02v-9.19h5.02c3.76,0,5.75,1.58,5.75,4.58Z"/>
        <path class="cls-1" d="M128.02,17.3c-3.57,0-6.84,1.24-9.19,3.49-2.36,2.25-3.66,5.38-3.66,8.79s1.3,6.54,3.66,8.79c2.36,2.25,5.62,3.49,9.19,3.49,7.45,0,12.85-5.17,12.85-12.28s-5.41-12.28-12.85-12.28Zm8.04,12.28c0,4.66-3.38,8.04-8.04,8.04s-8.04-3.38-8.04-8.04,3.38-8.04,8.04-8.04,8.04,3.38,8.04,8.04Z"/>
        <path class="cls-1" d="M146.66,21.43h8.21v12.09c0,2.81-1.14,4.17-3.49,4.17-1.75,0-3.28-.89-4.55-2.63l-.16-.22-2.8,3.36,.1,.13c1.65,2.24,4.39,3.52,7.51,3.52,5.47,0,8.24-2.89,8.24-8.58v-15.99h-13.05v4.13Z"/>
        <polygon class="cls-1" points="167.62 31.45 179.27 31.45 179.27 27.33 167.62 27.33 167.62 21.49 181.23 21.49 181.23 17.3 162.7 17.3 162.7 41.86 181.23 41.86 181.23 37.68 167.62 37.68 167.62 31.45"/>
        <path class="cls-1" d="M197.21,21.54c2.41,0,4.47,.9,6.12,2.68l.14,.16,3.12-2.93-.13-.15c-2.2-2.58-5.56-4-9.45-4-7.41,0-12.79,5.17-12.79,12.28,0,3.44,1.29,6.57,3.64,8.82,2.34,2.24,5.57,3.47,9.11,3.47,3.91,0,7.28-1.42,9.48-4l.13-.15-3.12-2.97-.14,.16c-1.64,1.8-3.7,2.71-6.12,2.71-4.74,0-8.17-3.38-8.17-8.04s3.44-8.04,8.17-8.04Z"/>
        <polygon class="cls-1" points="224.51 29.17 233.73 17.3 228.34 17.3 221.72 25.73 215.18 17.3 209.58 17.3 218.7 29.34 209.58 41.86 215.22 41.86 221.59 32.85 228.03 41.86 233.73 41.86 224.51 29.17"/>
      </g>
    </g>
  </g>
</svg>