<?xml version="1.0" encoding="UTF-8"?>
<svg id="Layer_2" data-name="Layer 2" xmlns="http://www.w3.org/2000/svg" viewBox="0 0 59.17 233.73">
  <defs>
    <style>
      .cls-1 {
        fill: #f3f3f3;
      }

      .cls-2 {
        fill: #e6e6e5;
      }
    </style>
  </defs>
  <g id="Layer_2-2" data-name="Layer 2">
    <g id="Layer_1-2" data-name="Layer 1-2">
      <g>
        <g>
          <path class="cls-1" d="M22.19,176.28c6.08,.02,11.58,2.49,15.57,6.48,4,4,6.48,9.53,6.48,15.64v11.51l-14.7-6.16h0l-.05-5.07c0-2.04-.83-3.88-2.16-5.21-1.34-1.34-3.18-2.16-5.22-2.16-4.09,0-7.37,3.37-7.37,7.45v11.09l-14.74,6.09v-17.39c0-12.21,9.99-22.31,22.19-22.27Z"/>
          <polygon class="cls-2" points="0 233.73 0 215.94 29.55 203.73 59.17 215.96 59.17 233.73 29.55 221.44 0 233.73"/>
        </g>
        <g>
          <path class="cls-1" d="M17.3,156.28v10.14h24.56v-4.91h-6.96v-5.23c0-6.47-3.37-10.49-8.8-10.49s-8.8,4.02-8.8,10.49Zm8.8-5.54c2.99,0,4.58,1.99,4.58,5.75v5.02h-9.15v-5.02c0-3.76,1.58-5.75,4.58-5.75h-.01Z"/>
          <path class="cls-1" d="M26.1,122.17c-5.43,0-8.8,4.02-8.8,10.49v10.14h24.56v-4.91h-7.03v-5.23c0-.27,0-.55-.02-.83l7.06-4.92v-5.35l-8.05,5.63c-1.36-3.24-4.09-5.02-7.72-5.02Zm0,4.95c2.97,0,4.61,2.04,4.61,5.75v5.02h-9.19v-5.02c0-3.76,1.58-5.75,4.58-5.75Z"/>
          <path class="cls-1" d="M17.3,105.71c0,3.57,1.24,6.84,3.49,9.19,2.25,2.36,5.38,3.66,8.79,3.66s6.54-1.3,8.79-3.66,3.49-5.62,3.49-9.19c0-7.45-5.17-12.85-12.28-12.85s-12.28,5.41-12.28,12.85Zm12.28-8.04c4.66,0,8.04,3.38,8.04,8.04s-3.38,8.04-8.04,8.04-8.04-3.38-8.04-8.04,3.38-8.04,8.04-8.04Z"/>
          <path class="cls-1" d="M21.43,87.07v-8.21h12.09c2.81,0,4.17,1.14,4.17,3.49,0,1.75-.89,3.28-2.63,4.55l-.22,.16,3.36,2.8,.13-.1c2.24-1.65,3.52-4.39,3.52-7.51,0-5.47-2.89-8.24-8.58-8.24h-15.99v13.05h4.15Z"/>
          <polygon class="cls-1" points="31.45 66.11 31.45 54.46 27.33 54.46 27.33 66.11 21.49 66.11 21.49 52.5 17.3 52.5 17.3 71.03 41.86 71.03 41.86 52.5 37.68 52.5 37.68 66.11 31.45 66.11"/>
          <path class="cls-1" d="M21.54,36.52c0-2.41,.9-4.47,2.68-6.12l.16-.14-2.93-3.12-.15,.13c-2.58,2.2-4,5.56-4,9.45,0,7.41,5.17,12.79,12.28,12.79,3.44,0,6.57-1.29,8.82-3.64,2.24-2.34,3.47-5.57,3.47-9.11,0-3.91-1.42-7.28-4-9.48l-.15-.13-2.97,3.12,.16,.14c1.8,1.64,2.71,3.7,2.71,6.12,0,4.74-3.38,8.17-8.04,8.17s-8.04-3.44-8.04-8.17h0Z"/>
          <polygon class="cls-1" points="29.17 9.22 17.3 0 17.3 5.39 25.73 12.01 17.3 18.55 17.3 24.15 29.34 15.03 41.86 24.15 41.86 18.51 32.85 12.14 41.86 5.7 41.86 0 29.17 9.22"/>
        </g>
      </g>
    </g>
  </g>
</svg>